<svg width="20" height="20" viewBox="0 0 20 20" fill="none" xmlns="http://www.w3.org/2000/svg">
<g id="24 / shopping / bag">
<path id="icon" fill-rule="evenodd" clip-rule="evenodd" d="M17.455 1.66667L18.2832 16.5742C18.3342 17.4933 17.6306 18.2797 16.7115 18.3308C16.6654 18.3329 16.6653 18.3329 16.6193 18.3333H16.6192H16.6191H3.38092C2.46044 18.3333 1.71425 17.5871 1.71425 16.6667C1.71446 16.6435 1.71457 16.632 1.71489 16.6204C1.71521 16.6089 1.71575 16.5973 1.71681 16.5742L1.71681 16.5742L2.54501 1.66667H17.455ZM4.12166 3.33334L3.38092 16.6667H16.6191L15.8783 3.33334H4.12166ZM7.5 5.00001H5.83333V7.08334C5.83333 9.08392 7.76937 10.8333 10 10.8333C12.2306 10.8333 14.1667 9.08392 14.1667 7.08334V5.00001H12.5V7.08334C12.5 8.12365 11.3457 9.16667 10 9.16667C8.65428 9.16667 7.5 8.12365 7.5 7.08334V5.00001Z" fill="#DB8D18"/>
</g>
</svg>
