<svg width="12" height="12" viewBox="0 0 12 12" fill="none" xmlns="http://www.w3.org/2000/svg">
<g id="24 / food / bread">
<path id="icon" fill-rule="evenodd" clip-rule="evenodd" d="M10.5 10V4.73244C11.0978 4.38663 11.5 3.74028 11.5 3C11.5 1.89543 10.6046 1 9.5 1H2.5C1.39543 1 0.5 1.89543 0.5 3C0.5 3.74028 0.902199 4.38663 1.5 4.73244V10C1.5 10.5523 1.94772 11 2.5 11H9.5C10.0523 11 10.5 10.5523 10.5 10ZM9.5 10H2.5V4.15564L2.00073 3.86683C1.69276 3.68868 1.5 3.36167 1.5 3C1.5 2.44771 1.94771 2 2.5 2H9.5C10.0523 2 10.5 2.44771 10.5 3C10.5 3.36167 10.3072 3.68868 9.99927 3.86683L9.5 4.15564V10Z" fill="#00BB1E"/>
</g>
</svg>
