<svg width="10" height="10" viewBox="0 0 10 10" fill="none" xmlns="http://www.w3.org/2000/svg">
<g id="24 / food / chicken">
<path id="icon" fill-rule="evenodd" clip-rule="evenodd" d="M4.65803 4.17039C3.91074 4.08695 2.94709 4.42023 2.28195 5.08655C1.45143 5.91855 1.47867 6.9525 2.26112 7.73634C3.04358 8.52019 4.07569 8.54748 4.90621 7.71548C5.56288 7.05764 5.89551 6.1083 5.82372 5.36384C5.79114 5.02596 5.67525 4.73028 5.46855 4.52321C5.26771 4.32202 4.98338 4.20671 4.65803 4.17039ZM6.32545 4.27092L7.08101 3.51401L7.36494 3.70245C7.6103 3.8653 7.94018 3.83392 8.15127 3.62245C8.39535 3.37794 8.39535 2.98151 8.15127 2.737C8.05399 2.63954 7.93105 2.57883 7.79807 2.55989L7.48821 2.51578L7.44418 2.20537C7.42528 2.07216 7.36467 1.94899 7.26739 1.85154C7.02331 1.60703 6.62758 1.60703 6.3835 1.85154C6.17242 2.063 6.14109 2.39347 6.30365 2.63927L6.49176 2.92371L5.73973 3.67707C5.85378 3.75043 5.96023 3.83566 6.05756 3.93315C6.16036 4.03614 6.24949 4.14933 6.32545 4.27092ZM4.87946 3.35826L5.4515 2.7852C5.2666 2.2657 5.3872 1.66901 5.79425 1.26123C6.36376 0.690704 7.28713 0.690704 7.85665 1.26123C8.01188 1.41674 8.12769 1.60199 8.19929 1.80343C8.40038 1.87516 8.5853 1.99118 8.74053 2.14669C9.31004 2.71722 9.31004 3.64223 8.74053 4.21275C8.33348 4.62053 7.73784 4.74135 7.21927 4.55611L6.63566 5.14076C6.79113 6.18161 6.35449 7.44345 5.49367 8.30579C4.33082 9.47072 2.77266 9.42953 1.6718 8.32671C0.570947 7.22389 0.52983 5.66296 1.69269 4.49804C2.56107 3.62811 3.83528 3.19061 4.87946 3.35826Z" fill="#2B97FB"/>
</g>
</svg>
