<svg width="11" height="11" viewBox="0 0 11 11" fill="none" xmlns="http://www.w3.org/2000/svg">
<g id="24 / basic / thumbs-up">
<path id="icon" fill-rule="evenodd" clip-rule="evenodd" d="M10.0833 5.49959C10.0833 4.72845 9.56524 4.12459 8.70834 4.12459H7.29987L7.31262 4.08988C7.32533 4.0555 7.36111 3.96119 7.39591 3.86948L7.39607 3.86905L7.39614 3.86888C7.42699 3.78756 7.45704 3.70837 7.4695 3.67492C7.55665 3.44101 7.62024 3.25255 7.67169 3.0659C7.74946 2.7838 7.79167 2.52964 7.79167 2.29126C7.79167 1.61659 7.37544 1.19754 6.75963 1.01823C6.48188 0.937354 6.24012 0.916215 5.95834 0.916258H5.73857L5.60096 1.08762C5.44552 1.2812 5.14021 1.63008 4.78822 2.0323L4.78822 2.0323L4.78821 2.0323L4.7882 2.03231C4.13886 2.77431 3.33067 3.69784 3.01142 4.16281C2.92858 4.13821 2.84083 4.125 2.75001 4.125H1.83334C1.32708 4.125 0.916672 4.53541 0.916672 5.04167V9.16667C0.916672 9.67293 1.32708 10.0833 1.83334 10.0833H2.75001C3.06494 10.0833 3.34277 9.92452 3.5078 9.6826C3.64684 9.77253 3.80198 9.84759 3.9706 9.90792C4.35667 10.0461 4.73956 10.0885 5.05744 10.0827L8.25001 10.0829C9.51278 10.0829 10.0833 8.22373 10.0833 5.49959ZM4.27941 9.04484C3.87382 8.89972 3.66667 8.66311 3.66667 8.24959V5.04167V5.04126C3.66667 4.93117 3.68704 4.83368 3.73162 4.72958C3.81171 4.54259 4.53839 3.71353 5.22714 2.92774L5.22715 2.92773C5.58262 2.52218 5.92799 2.12815 6.16915 1.83986C6.28439 1.8485 6.39301 1.86621 6.50336 1.89834C6.766 1.97482 6.875 2.08456 6.875 2.29126C6.875 2.43636 6.84564 2.61315 6.78799 2.82229C6.74491 2.97856 6.68911 3.14393 6.61051 3.35489C6.59935 3.38484 6.57152 3.45821 6.54191 3.53623L6.54177 3.53663C6.50574 3.63157 6.46715 3.73329 6.45286 3.77193C6.39326 3.93308 6.354 4.05175 6.32714 4.15957C6.21296 4.61792 6.32751 5.04126 6.875 5.04126H8.70834C9.02515 5.04126 9.16667 5.20621 9.16667 5.49959C9.16667 7.69535 8.71527 9.16626 8.25 9.16626H5.04167L5.02474 9.16654C4.82414 9.17013 4.54237 9.13892 4.27941 9.04484ZM1.83334 9.16667V5.04167H2.75001V9.16667H1.83334Z" fill="#25D741"/>
</g>
</svg>
