<svg width="11" height="11" viewBox="0 0 11 11" fill="none" xmlns="http://www.w3.org/2000/svg">
<g id="24 / basic / thumbs-down">
<path id="icon" fill-rule="evenodd" clip-rule="evenodd" d="M7.39614 7.13072L7.39594 7.1302L7.39577 7.12974C7.36101 7.03814 7.32531 6.94404 7.31261 6.90971L7.29986 6.875H8.70833C9.56523 6.875 10.0833 6.27114 10.0833 5.5C10.0833 2.77586 9.51277 0.916667 8.25 0.916667C8.25 0.916667 5.05227 0.91677 5.04117 0.916535C4.73955 0.911126 4.35666 0.953538 3.9706 1.09167C3.8019 1.15203 3.64669 1.22713 3.5076 1.31711C3.34255 1.07536 3.06481 0.916667 2.75 0.916667H1.83333C1.32707 0.916667 0.916666 1.32707 0.916666 1.83333V5.95833C0.916666 6.46459 1.32707 6.875 1.83333 6.875H2.75C2.84091 6.875 2.92874 6.86176 3.01165 6.83712C3.33105 7.3022 4.13901 8.22545 4.78819 8.96727L4.7882 8.96727L4.7882 8.96728L4.78826 8.96734C5.14023 9.36954 5.44552 9.7184 5.60096 9.91197L5.73856 10.0833H5.96186C6.24011 10.0834 6.48188 10.0622 6.75963 9.98136C7.37544 9.80205 7.79167 9.383 7.79167 8.70833C7.79167 8.46995 7.74945 8.21579 7.67169 7.93369C7.62023 7.74704 7.55664 7.55858 7.46949 7.32467C7.45703 7.29122 7.42699 7.21204 7.39614 7.13072ZM3.66667 5.95833V2.75C3.66667 2.33648 3.87382 2.09987 4.2794 1.95475C4.54237 1.86067 4.82413 1.82946 5.0259 1.83306L8.25 1.83333C8.71527 1.83333 9.16667 3.30424 9.16667 5.5C9.16667 5.79338 9.02514 5.95833 8.70833 5.95833H6.875C6.3275 5.95833 6.21295 6.38167 6.32713 6.84002C6.35399 6.94785 6.39325 7.06651 6.45286 7.22767C6.46717 7.26637 6.50586 7.36835 6.54193 7.46342L6.54209 7.46384L6.54211 7.46389C6.57164 7.54171 6.59937 7.61482 6.61051 7.6447C6.6891 7.85566 6.7449 8.02103 6.78798 8.17731C6.84564 8.38644 6.875 8.56323 6.875 8.70833C6.875 8.91503 6.766 9.02477 6.50335 9.10125C6.393 9.13338 6.28439 9.15109 6.16915 9.15973C5.92798 8.87144 5.58261 8.47742 5.22714 8.07186L5.22713 8.07185L5.2271 8.07181C4.53836 7.28603 3.81171 6.457 3.73162 6.27001C3.68703 6.16591 3.66667 6.06842 3.66667 5.95833ZM1.83333 5.95833V1.83333H2.75V5.95833H1.83333Z" fill="#FC0606"/>
</g>
</svg>
