<svg width="12" height="12" viewBox="0 0 12 12" fill="none" xmlns="http://www.w3.org/2000/svg">
<g id="24 / various / moon">
<path id="icon" fill-rule="evenodd" clip-rule="evenodd" d="M6.5 4.5C6.5 3.51271 6.91023 2.59238 7.6199 1.93382L8.35869 1.24824L7.36584 1.07478C7.08172 1.02514 6.79234 1 6.5 1C3.73858 1 1.5 3.23858 1.5 6C1.5 8.76142 3.73858 11 6.5 11C8.19269 11 9.74214 10.1519 10.6633 8.76978L11.2216 7.93214L10.2168 7.99341C10.1449 7.9978 10.0726 8 10 8C8.067 8 6.5 6.433 6.5 4.5ZM6.5 10C4.29086 10 2.5 8.20913 2.5 6C2.5 3.87395 4.15867 2.13531 6.25257 2.00752C5.76834 2.73424 5.5 3.59591 5.5 4.5C5.5 6.7195 7.10685 8.56371 9.2207 8.93276C8.49392 9.60766 7.53048 10 6.5 10Z" fill="#FC0606"/>
</g>
</svg>
